<?xml version="1.0" encoding="UTF-8" standalone="no"?><!DOCTYPE svg PUBLIC "-//W3C//DTD SVG 1.1//EN" "http://www.w3.org/Graphics/SVG/1.1/DTD/svg11.dtd"><svg width="100%" height="100%" viewBox="0 0 459 830" version="1.1" xmlns="http://www.w3.org/2000/svg" xmlns:xlink="http://www.w3.org/1999/xlink" xml:space="preserve" xmlns:serif="http://www.serif.com/" style="fill-rule:evenodd;clip-rule:evenodd;stroke-linecap:round;stroke-linejoin:round;stroke-miterlimit:1.5;"><rect id="Artboard1" x="0" y="0" width="454.229" height="826.121" style="fill:none;"/><g><path d="M229.171,27.244l0,333.089" style="fill:none;stroke:#f2af0d;stroke-width:51.76px;"/><path d="M229.171,366.333c105.95,0 191.971,87.137 191.971,194.467c0,107.329 -86.021,194.467 -191.971,194.467c-105.95,0 -191.971,-87.138 -191.971,-194.467c0,-107.329 86.021,-194.467 191.971,-194.467Zm0,0c105.95,0 191.971,87.137 191.971,194.467c0,107.329 -86.021,194.467 -191.971,194.467c-105.95,0 -191.971,-87.138 -191.971,-194.467c0,-107.329 86.021,-194.467 191.971,-194.467Z" style="fill:#ebebeb;stroke:#f2af0d;stroke-width:43.33px;"/></g></svg>