<?xml version="1.0" encoding="UTF-8" standalone="no"?><!DOCTYPE svg PUBLIC "-//W3C//DTD SVG 1.1//EN" "http://www.w3.org/Graphics/SVG/1.1/DTD/svg11.dtd"><svg width="100%" height="100%" viewBox="0 0 110 199" version="1.1" xmlns="http://www.w3.org/2000/svg" xmlns:xlink="http://www.w3.org/1999/xlink" xml:space="preserve" xmlns:serif="http://www.serif.com/" style="fill-rule:evenodd;clip-rule:evenodd;stroke-linecap:round;stroke-linejoin:round;stroke-miterlimit:1.5;"><rect id="Artboard1" x="0" y="0" width="109.015" height="198.269" style="fill:none;"/><clipPath id="_clip1"><rect x="0" y="0" width="109.015" height="198.269"/></clipPath><g clip-path="url(#_clip1)"><path d="M55.001,0l0,86.48" style="fill:none;stroke:#f2af0d;stroke-width:12.9px;"/><path d="M55.001,87.92c25.428,0 46.073,20.913 46.073,46.672c0,25.759 -20.645,46.672 -46.073,46.672c-25.428,0 -46.073,-20.913 -46.073,-46.672c0,-25.759 20.645,-46.672 46.073,-46.672Zm0,0c25.428,0 46.073,20.913 46.073,46.672c0,25.759 -20.645,46.672 -46.073,46.672c-25.428,0 -46.073,-20.913 -46.073,-46.672c0,-25.759 20.645,-46.672 46.073,-46.672Z" style="fill:#ebebeb;stroke:#f2af0d;stroke-width:10.4px;"/></g></svg>