<?xml version="1.0" encoding="UTF-8" standalone="no"?><!DOCTYPE svg PUBLIC "-//W3C//DTD SVG 1.1//EN" "http://www.w3.org/Graphics/SVG/1.1/DTD/svg11.dtd"><svg width="100%" height="100%" viewBox="0 0 122 116" version="1.1" xmlns="http://www.w3.org/2000/svg" xmlns:xlink="http://www.w3.org/1999/xlink" xml:space="preserve" xmlns:serif="http://www.serif.com/" style="fill-rule:evenodd;clip-rule:evenodd;stroke-linejoin:round;stroke-miterlimit:2;"><g id="BACKGROUND"></g><g id="OBJECTS"><path d="M25.076,13.519c-1.953,0.133 -3.767,0.887 -5.52,1.711c-2.113,0.993 -4.128,2.202 -6.058,3.513c-3.313,2.249 -7.471,5.077 -8.98,8.97c-0.771,1.989 1.709,3.263 3.272,2.515c5.716,-2.733 11.07,-6.143 16.851,-8.75c4.777,-2.154 9.671,-5.655 15.091,-5.728c-0.375,-1.384 -0.749,-2.767 -1.124,-4.151c-6.381,3.07 -11.943,7.439 -17.714,11.48c-4.7,3.291 -9.714,6.105 -14.118,9.812c-2.353,1.981 -4.576,4.28 -5.999,7.035c-0.859,1.662 0.568,3.85 2.515,3.272c7.45,-2.213 13.252,-7.766 19.725,-11.793c3.477,-2.164 7.228,-3.976 10.909,-5.763c3.798,-1.844 7.682,-3.47 11.739,-4.655c-0.839,-1.091 -1.677,-2.181 -2.515,-3.272c-1.866,2.549 -4.603,4.462 -7.221,6.162c-3.042,1.975 -6.226,3.714 -9.336,5.575c-2.863,1.713 -5.533,3.681 -8.252,5.607c-3.211,2.274 -6.416,4.568 -9.438,7.091c-3.261,2.723 -6.313,5.767 -8.572,9.39c-1.087,1.743 0.701,3.654 2.515,3.272c3.454,-0.728 6.354,-3.51 9.009,-5.658c3.154,-2.551 6.657,-4.715 10.104,-6.845c3.617,-2.235 7.433,-4.102 11.064,-6.308c3.531,-2.146 6.955,-4.465 10.525,-6.546c3.777,-2.201 7.728,-4.191 12.074,-4.94c-0.839,-1.091 -1.677,-2.181 -2.515,-3.272c-0.637,1.091 -2.324,2.003 -3.618,2.723c-1.638,0.911 -3.346,1.713 -4.869,2.813c-4.354,3.144 -8.677,6.33 -13.106,9.37c-6.883,4.724 -13.935,9.234 -20.102,14.904c-3.141,2.888 -6.265,6.171 -8.105,10.069c-0.64,1.356 -0.111,2.771 1.331,3.272c2.47,0.858 5.224,-0.578 7.253,-1.882c2.568,-1.65 4.894,-3.679 7.174,-5.698c5.69,-5.039 12.042,-9.318 18.353,-13.536c15.808,-10.566 32.314,-19.905 49.055,-28.895c3.433,-1.844 6.977,-3.239 10.554,-4.771c3.473,-1.488 6.905,-3.233 9.249,-6.287c0.527,-0.687 0.316,-1.858 -0.174,-2.474c-0.59,-0.741 -1.424,-0.966 -2.341,-0.798c-14.823,2.713 -28.187,9.874 -41.883,15.802c-3.835,1.66 -7.723,3.197 -11.688,4.519c0.722,1.241 1.445,2.482 2.167,3.723c5.757,-4.844 12.76,-8.287 19.767,-10.911c7.638,-2.861 15.698,-4.911 23.831,-5.66c4.152,-0.382 8.346,-0.434 12.49,0.078c-0.716,-0.94 -1.432,-1.88 -2.148,-2.819c-0.127,0.631 -0.118,0.599 -0.502,1.153c-0.269,0.388 -0.763,0.876 -1.208,1.28c-1.055,0.961 -2.255,1.748 -3.461,2.505c-2.761,1.733 -5.569,3.428 -8.403,5.037c-7.138,4.05 -14.623,7.452 -21.74,11.541c-7.339,4.217 -14.378,9.032 -21.383,13.775c-7.088,4.799 -14.087,9.729 -21.015,14.755c-7.784,5.647 -15.48,11.416 -23.124,17.252c-1.953,1.491 -0.893,4.622 1.716,4.071c3.186,-0.672 5.993,-2.655 8.541,-4.588c2.653,-2.012 5.181,-4.14 8.005,-5.914c7.263,-4.561 14.69,-8.86 22.253,-12.903c15.522,-8.297 31.68,-15.296 47.618,-22.737c7.908,-3.692 15.808,-8.224 24.368,-10.222c-0.722,-1.241 -1.445,-2.482 -2.167,-3.723c-1.856,2.333 -4.748,3.7 -7.381,4.98c-2.814,1.368 -5.707,2.567 -8.43,4.116c-7.824,4.452 -15.909,8.416 -23.909,12.536c-7.846,4.041 -15.57,8.282 -22.936,13.153c-6.991,4.622 -13.731,9.607 -20.598,14.407c-7.707,5.387 -15.602,10.556 -24.094,14.632c1.091,0.839 2.181,1.677 3.272,2.515c2.731,-6.55 7.453,-12.187 12.458,-17.121c5.501,-5.423 11.625,-10.174 17.95,-14.59c6.362,-4.442 12.892,-8.751 19.712,-12.458c7.945,-4.319 16.281,-7.842 24.768,-10.942c9.641,-3.522 19.454,-6.538 29.207,-9.728c-0.839,-1.091 -1.677,-2.181 -2.515,-3.272c-1.099,2.475 -3.675,3.922 -5.953,5.217c-2.846,1.618 -5.617,3.238 -8.349,5.048c-7.185,4.76 -14.294,9.632 -21.404,14.503c-6.927,4.746 -13.863,9.472 -20.894,14.063c-6.873,4.488 -13.772,8.944 -20.446,13.725c-7.428,5.321 -14.363,11.34 -22.522,15.561c0.9,1.166 1.799,2.332 2.699,3.498c10.882,-9.661 23.794,-16.742 36.646,-23.407c13.761,-7.137 27.502,-14.334 41.377,-21.247c8.319,-4.145 16.702,-8.163 25.192,-11.946c-1.117,-0.641 -2.234,-1.282 -3.352,-1.923c0.048,-0.391 -0.045,0.093 -0.109,0.214c0.219,-0.41 -0.247,0.34 -0.142,0.191c-0.134,0.191 -0.724,0.769 -1.004,0.994c-0.904,0.725 -2.112,1.363 -3.196,1.914c-2.378,1.209 -4.777,2.302 -7.106,3.61c-7.034,3.949 -14.014,7.994 -20.953,12.108c-6.929,4.108 -13.877,8.205 -20.616,12.621c-6.53,4.279 -12.893,8.805 -19.254,13.329c-7.186,5.111 -14.379,10.216 -21.806,14.973c0.9,1.166 1.799,2.332 2.699,3.498c10.843,-8.382 23.421,-14.24 35.788,-19.977c6.181,-2.867 12.416,-5.661 18.444,-8.842c6.281,-3.314 12.283,-7.124 18.381,-10.757c6.715,-4.001 13.583,-7.905 21,-10.458c-0.838,-1.091 -1.677,-2.181 -2.515,-3.272c-0.815,1.645 -2.545,2.964 -4.267,4.085c-2.147,1.398 -4.43,2.576 -6.709,3.742c-5.471,2.8 -10.668,6.121 -16.016,9.151c-12.393,7.022 -24.614,14.35 -36.508,22.194c-6.407,4.225 -12.671,8.748 -18.264,14.022c-1.309,1.234 -0.384,4.017 1.575,3.802c5.396,-0.59 9.766,-3.992 14.422,-6.47c2.701,-1.437 5.534,-2.637 8.261,-4.029c2.774,-1.416 5.518,-2.89 8.252,-4.382c11.406,-6.226 22.914,-12.244 34.404,-18.314c6.62,-3.497 13.228,-7.015 19.82,-10.564c-1.091,-0.838 -2.181,-1.677 -3.272,-2.515c-0.381,2.194 -2.297,3.796 -3.961,5.137c-1.927,1.553 -4.018,2.957 -6.081,4.32c-5.371,3.55 -11.074,6.559 -16.745,9.594c-11.918,6.378 -23.519,13.323 -35.123,20.251c-5.536,3.305 -11.706,6.048 -16.259,10.732c-1.444,1.486 -0.285,3.611 1.575,3.802c2.493,0.256 4.919,-0.643 7.154,-1.645c2.32,-1.041 4.554,-2.291 6.829,-3.427c5.134,-2.562 10.257,-5.145 15.345,-7.796c4.919,-2.563 9.789,-5.209 14.759,-7.67c4.724,-2.34 9.481,-4.613 14.171,-7.02c5.343,-2.743 10.601,-5.665 15.56,-9.062c-0.9,-1.166 -1.799,-2.332 -2.699,-3.498c-14.181,14.483 -33.59,21.672 -50.408,32.402c-4.853,3.096 -9.517,6.514 -13.777,10.392c-1.679,1.529 0.087,4.291 2.167,3.723c8.476,-2.314 16.383,-6.265 24.203,-10.192c3.386,-1.7 6.774,-3.371 10.238,-4.907c3.448,-1.529 6.916,-3.019 10.288,-4.713c3.702,-1.86 7.285,-3.978 10.419,-6.707c-1.241,-0.722 -2.482,-1.445 -3.723,-2.167c-0.43,1.04 -1.477,2.43 -2.432,3.432c-1.228,1.288 -2.599,2.438 -4.039,3.482c-3.164,2.294 -6.574,4.227 -9.986,6.122c-2.932,1.629 -5.802,3.364 -8.734,4.989c-3.552,1.969 -7.171,3.818 -10.638,5.937c-3.737,2.284 -7.483,4.877 -10.034,8.503c-1.194,1.697 0.771,3.66 2.515,3.272c13.013,-2.896 21.218,-14.767 33.387,-19.365c-0.838,-1.091 -1.677,-2.181 -2.515,-3.272c-3.031,4.357 -7.576,7.3 -12.096,9.917c-4.748,2.749 -9.63,5.243 -13.936,8.68c-0.941,0.751 -0.784,2.366 0,3.15c0.93,0.93 2.206,0.753 3.15,0c4.255,-3.395 9.258,-5.746 13.924,-8.502c4.906,-2.898 9.517,-6.27 12.805,-10.995c1.07,-1.538 -0.725,-3.948 -2.515,-3.272c-6.222,2.351 -11.46,6.412 -16.749,10.341c-5.068,3.764 -10.368,7.629 -16.638,9.025c0.839,1.091 1.677,2.181 2.515,3.272c1.973,-2.804 5.309,-4.984 8.29,-6.815c3.511,-2.156 7.182,-4.03 10.784,-6.026c2.977,-1.65 5.892,-3.409 8.868,-5.063c3.459,-1.923 6.916,-3.888 10.109,-6.236c3.417,-2.512 6.612,-5.396 8.261,-9.388c0.37,-0.895 -0.248,-2.062 -1.024,-2.515c-0.893,-0.522 -1.948,-0.306 -2.699,0.348c-5.296,4.611 -12.13,7.337 -18.483,10.139c-7.259,3.202 -14.222,6.998 -21.435,10.296c-4.298,1.965 -8.702,3.692 -13.265,4.938c0.722,1.241 1.445,2.482 2.167,3.723c14.914,-13.58 34.357,-20.457 50.836,-31.76c4.767,-3.27 9.301,-6.9 13.349,-11.034c1.712,-1.749 -0.55,-4.971 -2.699,-3.498c-8.633,5.914 -18.133,10.383 -27.501,14.983c-9.79,4.808 -19.354,10.058 -29.103,14.949c-2.61,1.31 -5.222,2.615 -7.818,3.95c-2.2,1.132 -4.601,2.392 -7.148,2.13c0.525,1.268 1.05,2.535 1.575,3.802c3.976,-4.09 9.338,-6.458 14.179,-9.332c6.032,-3.581 12.043,-7.195 18.103,-10.73c5.889,-3.435 11.814,-6.806 17.825,-10.025c5.733,-3.07 11.505,-6.101 16.944,-9.679c2.535,-1.667 5.078,-3.41 7.418,-5.345c2.133,-1.764 4.353,-4.054 4.845,-6.889c0.329,-1.891 -1.463,-3.49 -3.272,-2.515c-11.443,6.161 -22.936,12.226 -34.449,18.254c-5.579,2.921 -11.133,5.877 -16.652,8.911c-5.455,3 -10.923,5.987 -16.557,8.643c-2.701,1.273 -5.242,2.725 -7.826,4.218c-2.259,1.305 -4.775,2.834 -7.426,3.124c0.525,1.267 1.05,2.535 1.575,3.802c9.916,-9.351 21.852,-16.181 33.315,-23.414c6.292,-3.97 12.724,-7.676 19.199,-11.338c5.55,-3.139 10.944,-6.628 16.617,-9.533c2.53,-1.295 5.08,-2.575 7.464,-4.128c2.237,-1.457 4.649,-3.228 5.865,-5.683c0.795,-1.605 -0.544,-3.951 -2.515,-3.272c-13.664,4.703 -25.421,13.38 -37.964,20.322c-12.196,6.75 -25.255,11.813 -37.605,18.271c-7.003,3.662 -13.752,7.749 -20.01,12.586c-2.002,1.547 0.59,4.849 2.699,3.498c13.575,-8.693 26.344,-18.561 39.78,-27.458c6.831,-4.523 13.883,-8.703 20.924,-12.887c7.129,-4.236 14.301,-8.4 21.53,-12.463c2.758,-1.55 5.647,-2.8 8.419,-4.314c2.706,-1.478 5.337,-3.422 5.74,-6.677c0.231,-1.867 -2.016,-2.518 -3.352,-1.923c-15.12,6.738 -29.902,14.208 -44.584,21.844c-13.22,6.876 -26.735,13.328 -39.507,21.023c-7.053,4.25 -13.861,8.955 -20.026,14.428c-1.965,1.744 0.537,4.617 2.699,3.498c7.328,-3.791 13.621,-9.046 20.236,-13.903c6.674,-4.901 13.609,-9.431 20.542,-13.953c14.472,-9.441 28.583,-19.41 42.966,-28.984c3.238,-2.155 6.495,-4.139 9.872,-6.059c2.882,-1.639 6.151,-3.66 7.551,-6.815c0.721,-1.625 -0.489,-3.935 -2.515,-3.272c-17.744,5.803 -35.769,11.114 -52.414,19.727c-7.225,3.739 -14.079,8.173 -20.781,12.774c-6.602,4.531 -13.04,9.38 -18.87,14.881c-6.23,5.878 -11.822,12.607 -15.141,20.57c-0.332,0.798 0.169,1.871 0.798,2.341c0.757,0.566 1.634,0.577 2.474,0.174c15.285,-7.338 28.503,-18.11 42.478,-27.558c7.261,-4.909 14.827,-9.258 22.595,-13.31c8.045,-4.196 16.212,-8.161 24.15,-12.561c3.337,-1.849 6.705,-3.484 10.146,-5.128c3.135,-1.497 6.669,-3.184 8.881,-5.964c1.344,-1.689 0.143,-4.262 -2.167,-3.723c-7.55,1.763 -14.547,5.533 -21.509,8.828c-7.978,3.776 -16.024,7.406 -24.038,11.105c-15.804,7.295 -31.326,15.076 -46.185,24.165c-3.511,2.148 -6.818,4.387 -10.048,6.936c-2.671,2.108 -5.592,4.609 -9.005,5.329c0.572,1.357 1.144,2.714 1.716,4.071c13.859,-10.581 27.895,-20.939 42.305,-30.761c7.133,-4.862 14.31,-9.749 21.736,-14.156c7.246,-4.3 14.935,-7.781 22.289,-11.882c3.291,-1.835 6.561,-3.781 9.735,-5.814c2.662,-1.705 6.147,-4.005 6.818,-7.348c0.311,-1.55 -0.653,-2.635 -2.148,-2.819c-7.987,-0.986 -16.21,0.008 -24.026,1.742c-8.4,1.864 -16.655,4.779 -24.273,8.794c-3.882,2.046 -7.579,4.434 -10.939,7.262c-1.703,1.433 0.115,4.407 2.167,3.723c14.128,-4.713 27.089,-12.289 41.19,-17.064c4.048,-1.371 8.176,-2.488 12.381,-3.257c-0.838,-1.091 -1.677,-2.181 -2.515,-3.272c-1.596,2.081 -4.846,3.476 -7.349,4.559c-2.89,1.251 -5.897,2.264 -8.687,3.737c-8.136,4.295 -16.222,8.707 -24.2,13.289c-7.91,4.543 -15.681,9.34 -23.32,14.325c-3.841,2.506 -7.641,5.074 -11.381,7.726c-3.129,2.219 -6.35,4.415 -9.266,6.913c-2.188,1.874 -4.28,3.877 -6.569,5.622c-1.182,0.901 -2.42,1.737 -3.746,2.414c-0.135,0.069 -0.276,0.136 -0.416,0.197c0.316,-0.138 -0.114,0.04 -0.174,0.062c-0.286,0.099 -0.57,0.175 -0.862,0.249c-0.35,0.09 0.271,-0.04 -0.292,0.017c-0.372,0.038 -0.003,0.014 0.105,0.037c-0.154,-0.034 -0.302,-0.072 -0.451,-0.124c0.444,1.091 0.888,2.181 1.331,3.272c1.572,-3.332 4.122,-6.073 6.776,-8.578c3.008,-2.84 6.274,-5.391 9.627,-7.808c3.286,-2.368 6.681,-4.573 10.021,-6.862c4.431,-3.036 8.763,-6.21 13.109,-9.365c3.284,-2.384 8.115,-3.582 10.266,-7.266c1.054,-1.804 -0.678,-3.589 -2.515,-3.272c-7.969,1.374 -14.892,6.438 -21.589,10.65c-3.489,2.195 -7.153,4.04 -10.704,6.125c-3.825,2.246 -7.691,4.617 -11.241,7.281c-1.611,1.209 -3.126,2.54 -4.735,3.751c-1.372,1.032 -2.849,2.141 -4.507,2.49c0.839,1.091 1.677,2.181 2.515,3.272c3.922,-6.29 10.473,-10.678 16.412,-14.883c2.72,-1.926 5.389,-3.895 8.252,-5.607c3.111,-1.861 6.295,-3.601 9.337,-5.575c3.309,-2.148 6.472,-4.554 8.819,-7.76c1.178,-1.61 -0.767,-3.783 -2.515,-3.272c-4.145,1.21 -8.14,2.875 -12.033,4.733c-3.727,1.779 -7.505,3.616 -11.046,5.746c-6.365,3.829 -12.046,9.579 -19.294,11.732c0.839,1.091 1.677,2.181 2.515,3.272c1.515,-2.932 4.049,-5.215 6.63,-7.208c2.786,-2.152 5.783,-4.02 8.733,-5.934c6.969,-4.523 13.341,-9.964 20.87,-13.586c2.036,-0.98 0.99,-4.179 -1.124,-4.151c-6.064,0.081 -11.393,3.561 -16.713,6.049c-5.952,2.784 -11.554,6.206 -17.478,9.038c1.091,0.838 2.181,1.677 3.272,2.515c-0.248,0.64 0.142,-0.224 0.26,-0.41c0.095,-0.149 0.198,-0.294 0.302,-0.437c-0.19,0.263 -0.052,0.061 0.07,-0.08c0.567,-0.655 1.163,-1.275 1.8,-1.863c1.493,-1.378 3.05,-2.546 4.739,-3.679c1.755,-1.178 3.579,-2.268 5.482,-3.191c0.87,-0.422 1.119,-0.542 2.012,-0.848c0.361,-0.124 0.727,-0.237 1.099,-0.325c0.164,-0.039 0.329,-0.07 0.495,-0.102c-0.31,0.06 -0.314,0.033 0.003,0.011c1.2,-0.082 2.227,-0.965 2.227,-2.227c0.002,-1.146 -1.018,-2.313 -2.225,-2.231Z" style="fill:#8aa88e;fill-rule:nonzero;"/></g></svg>