<?xml version="1.0" encoding="UTF-8" standalone="no"?><!DOCTYPE svg PUBLIC "-//W3C//DTD SVG 1.1//EN" "http://www.w3.org/Graphics/SVG/1.1/DTD/svg11.dtd"><svg width="100%" height="100%" viewBox="0 0 119 112" version="1.1" xmlns="http://www.w3.org/2000/svg" xmlns:xlink="http://www.w3.org/1999/xlink" xml:space="preserve" xmlns:serif="http://www.serif.com/" style="fill-rule:evenodd;clip-rule:evenodd;stroke-linejoin:round;stroke-miterlimit:2;"><g id="BACKGROUND"></g><g id="OBJECTS"><g><path d="M9.087,76.232c-1.176,8.665 -1.507,18.59 4.418,24.923c7.89,8.432 21.495,5.456 32.372,1.856c15.023,-4.972 30.046,-9.945 45.069,-14.917c5.956,-1.971 12.002,-3.987 17.174,-7.583c5.172,-3.596 9.442,-9.054 10.177,-15.388c1.104,-9.517 -5.708,-17.964 -12.524,-24.57c-10.359,-10.039 -21.81,-18.906 -34.063,-26.412c-8.361,-5.122 -22.532,-15.544 -33.019,-13.984c-11.61,1.727 -15.344,20.236 -18.568,29.607c-5.182,15.065 -8.891,30.656 -11.036,46.468Z" style="fill:#e6b560;fill-rule:nonzero;"/><path d="M19.851,111.901c-5.525,0 -10.766,-1.423 -14.628,-5.552c-6.158,-6.582 -5.654,-16.959 -4.528,-25.264l0.414,0.056l-0.414,-0.056c2.143,-15.794 5.863,-31.455 11.055,-46.548c0.481,-1.398 0.978,-3.016 1.504,-4.729c3.067,-9.98 7.267,-23.649 17.397,-25.156c9.159,-1.361 20.881,6.132 29.439,11.604c1.385,0.885 2.68,1.714 3.86,2.437c12.307,7.539 23.791,16.444 34.135,26.468c5.997,5.811 13.832,14.717 12.649,24.918c-0.681,5.866 -4.454,11.582 -10.354,15.682c-5.262,3.659 -11.372,5.681 -17.281,7.636l-45.069,14.917c-5.376,1.782 -11.957,3.587 -18.179,3.587Zm13.081,-106.576c-0.735,0 -1.454,0.049 -2.158,0.154c-9.61,1.43 -13.72,14.807 -16.722,24.575c-0.529,1.72 -1.027,3.344 -1.513,4.755c-5.174,15.041 -8.881,30.649 -11.017,46.389c-1.102,8.122 -1.608,18.256 4.31,24.58c7.796,8.334 21.163,5.31 31.935,1.745l45.069,-14.917c5.853,-1.937 11.905,-3.94 17.067,-7.53c5.702,-3.964 9.348,-9.465 10.001,-15.093c1.141,-9.835 -6.531,-18.534 -12.4,-24.222c-10.299,-9.981 -21.735,-18.848 -33.99,-26.355c-1.184,-0.725 -2.484,-1.557 -3.874,-2.445c-7.775,-4.972 -18.197,-11.636 -26.708,-11.636Z" style="fill:#231f20;fill-rule:nonzero;"/></g></g></svg>